<?xml version="1.0" encoding="UTF-8" standalone="no"?>
<!DOCTYPE svg PUBLIC "-//W3C//DTD SVG 1.1//EN"
 "http://www.w3.org/Graphics/SVG/1.1/DTD/svg11.dtd">
<!-- Generated by graphviz version 2.40.1 (20161225.0304)
 -->
<!-- Title: dependencies Pages: 1 -->
<svg width="806pt" height="211pt"
 viewBox="0.00 0.00 806.00 211.00" xmlns="http://www.w3.org/2000/svg" xmlns:xlink="http://www.w3.org/1999/xlink">
<g id="graph0" class="graph" transform="scale(1 1) rotate(0) translate(4 207)">
<title>dependencies</title>
<polygon fill="#ffffff" stroke="transparent" points="-4,4 -4,-207 802,-207 802,4 -4,4"/>
<text text-anchor="start" x="378.0091" y="-42.4" font-family="sans-serif" font-weight="bold" font-size="14.00" fill="#000000">Legend</text>
<polygon fill="#ffffb3" stroke="transparent" points="165,-10 165,-30 185,-30 185,-10 165,-10"/>
<text text-anchor="start" x="188.629" y="-15.4" font-family="sans-serif" font-size="14.00" fill="#000000"> &#160;Declarations</text>
<polygon fill="#8dd3c7" stroke="transparent" points="278,-10 278,-30 298,-30 298,-10 278,-10"/>
<text text-anchor="start" x="301.7251" y="-15.4" font-family="sans-serif" font-size="14.00" fill="#000000"> &#160;Module</text>
<polygon fill="#80b1d3" stroke="transparent" points="364,-10 364,-30 384,-30 384,-10 364,-10"/>
<text text-anchor="start" x="387.7812" y="-15.4" font-family="sans-serif" font-size="14.00" fill="#000000"> &#160;Bootstrap</text>
<polygon fill="#fdb462" stroke="transparent" points="461,-10 461,-30 481,-30 481,-10 461,-10"/>
<text text-anchor="start" x="484.6732" y="-15.4" font-family="sans-serif" font-size="14.00" fill="#000000"> &#160;Providers</text>
<polygon fill="#fb8072" stroke="transparent" points="557,-10 557,-30 577,-30 577,-10 557,-10"/>
<text text-anchor="start" x="580.7258" y="-15.4" font-family="sans-serif" font-size="14.00" fill="#000000"> &#160;Exports</text>
<g id="clust1" class="cluster">
<title>cluster_ToolKitModule</title>
<polygon fill="none" stroke="#000000" stroke-dasharray="1,5" points="8,-70 8,-195 790,-195 790,-70 8,-70"/>
</g>
<g id="clust2" class="cluster">
<title>cluster_ToolKitModule_declarations</title>
<polygon fill="none" stroke="#000000" points="660,-78 660,-130 782,-130 782,-78 660,-78"/>
</g>
<g id="clust7" class="cluster">
<title>cluster_ToolKitModule_providers</title>
<polygon fill="none" stroke="#000000" points="16,-78 16,-130 652,-130 652,-78 16,-78"/>
</g>
<!-- AppComponent -->
<g id="node1" class="node">
<title>AppComponent</title>
<polygon fill="#ffffb3" stroke="#000000" points="773.9399,-122 668.0601,-122 668.0601,-86 773.9399,-86 773.9399,-122"/>
<text text-anchor="middle" x="721" y="-99.8" font-family="Times,serif" font-size="14.00" fill="#000000">AppComponent</text>
</g>
<!-- ToolKitModule -->
<g id="node2" class="node">
<title>ToolKitModule</title>
<polygon fill="#8dd3c7" stroke="#000000" points="486.8809,-187 483.8809,-191 462.8809,-191 459.8809,-187 383.1191,-187 383.1191,-151 486.8809,-151 486.8809,-187"/>
<text text-anchor="middle" x="435" y="-164.8" font-family="Times,serif" font-size="14.00" fill="#000000">ToolKitModule</text>
</g>
<!-- AppComponent&#45;&gt;ToolKitModule -->
<g id="edge1" class="edge">
<title>AppComponent&#45;&gt;ToolKitModule</title>
<path fill="none" stroke="#000000" d="M721,-122.1061C721,-141.3391 721,-169 721,-169 721,-169 497.1243,-169 497.1243,-169"/>
<polygon fill="#000000" stroke="#000000" points="497.1243,-165.5001 487.1243,-169 497.1242,-172.5001 497.1243,-165.5001"/>
</g>
<!-- ArlasConfigService -->
<g id="node3" class="node">
<title>ArlasConfigService</title>
<ellipse fill="#fdb462" stroke="#000000" cx="556" cy="-104" rx="87.9568" ry="18"/>
<text text-anchor="middle" x="556" y="-99.8" font-family="Times,serif" font-size="14.00" fill="#000000">ArlasConfigService</text>
</g>
<!-- ArlasConfigService&#45;&gt;ToolKitModule -->
<g id="edge2" class="edge">
<title>ArlasConfigService&#45;&gt;ToolKitModule</title>
<path fill="none" stroke="#000000" d="M477.6062,-112.2323C477.6062,-112.2323 477.6062,-140.7574 477.6062,-140.7574"/>
<polygon fill="#000000" stroke="#000000" points="474.1063,-140.7574 477.6062,-150.7574 481.1063,-140.7575 474.1063,-140.7574"/>
</g>
<!-- ArlascollaborativesearchService -->
<g id="node4" class="node">
<title>ArlascollaborativesearchService</title>
<ellipse fill="#fdb462" stroke="#000000" cx="314" cy="-104" rx="135.9465" ry="18"/>
<text text-anchor="middle" x="314" y="-99.8" font-family="Times,serif" font-size="14.00" fill="#000000">ArlascollaborativesearchService</text>
</g>
<!-- ArlascollaborativesearchService&#45;&gt;ToolKitModule -->
<g id="edge3" class="edge">
<title>ArlascollaborativesearchService&#45;&gt;ToolKitModule</title>
<path fill="none" stroke="#000000" d="M416.5164,-115.922C416.5164,-115.922 416.5164,-140.7669 416.5164,-140.7669"/>
<polygon fill="#000000" stroke="#000000" points="413.0165,-140.7669 416.5164,-150.7669 420.0165,-140.7669 413.0165,-140.7669"/>
</g>
<!-- StartupService -->
<g id="node5" class="node">
<title>StartupService</title>
<ellipse fill="#fdb462" stroke="#000000" cx="92" cy="-104" rx="67.7721" ry="18"/>
<text text-anchor="middle" x="92" y="-99.8" font-family="Times,serif" font-size="14.00" fill="#000000">StartupService</text>
</g>
<!-- StartupService&#45;&gt;ToolKitModule -->
<g id="edge4" class="edge">
<title>StartupService&#45;&gt;ToolKitModule</title>
<path fill="none" stroke="#000000" d="M92,-122.1061C92,-141.3391 92,-169 92,-169 92,-169 372.9057,-169 372.9057,-169"/>
<polygon fill="#000000" stroke="#000000" points="372.9057,-172.5001 382.9057,-169 372.9056,-165.5001 372.9057,-172.5001"/>
</g>
</g>
</svg>
